HIERARCHY
ROOT Hips
{
	OFFSET -0.001795 -0.223333 0.028219
	CHANNELS 6 Xposition Yposition Zposition Zrotation Yrotation Xrotation 
	JOINT LeftUpLeg
	{
		OFFSET 0.069520 -0.091406 -0.006815
		CHANNELS 3 Zrotation Yrotation Xrotation
		JOINT LeftLeg
		{
			OFFSET 0.034277 -0.375199 -0.004496
			CHANNELS 3 Zrotation Yrotation Xrotation
			JOINT LeftFoot
			{
				OFFSET -0.013596 -0.397961 -0.043693
				CHANNELS 3 Zrotation Yrotation Xrotation
				JOINT LeftToe
				{
					OFFSET 0.026358 -0.055791 0.119288
					CHANNELS 3 Zrotation Yrotation Xrotation
					End Site
					{
						OFFSET 0.000000 0.000000 0.000000
					}
				}
			}
		}
	}
	JOINT RightUpLeg
	{
		OFFSET -0.067670 -0.090522 -0.004320
		CHANNELS 3 Zrotation Yrotation Xrotation
		JOINT RightLeg
		{
			OFFSET -0.038290 -0.382569 -0.008850
			CHANNELS 3 Zrotation Yrotation Xrotation
			JOINT RightFoot
			{
				OFFSET 0.015774 -0.398415 -0.042312
				CHANNELS 3 Zrotation Yrotation Xrotation
				JOINT RightToe
				{
					OFFSET -0.025372 -0.048144 0.123348
					CHANNELS 3 Zrotation Yrotation Xrotation
					End Site
					{
						OFFSET 0.000000 0.000000 0.000000
					}
				}
			}
		}
	}
	JOINT Spine
	{
		OFFSET -0.002533 0.108963 -0.026696
		CHANNELS 3 Zrotation Yrotation Xrotation
		JOINT Spine1
		{
			OFFSET 0.005487 0.135180 0.001092
			CHANNELS 3 Zrotation Yrotation Xrotation
			JOINT Spine2
			{
				OFFSET 0.001457 0.052922 0.025425
				CHANNELS 3 Zrotation Yrotation Xrotation
				JOINT Neck
				{
					OFFSET -0.002778 0.213870 -0.042857
					CHANNELS 3 Zrotation Yrotation Xrotation
					JOINT Head
					{
						OFFSET 0.005152 0.064970 0.051349
						CHANNELS 3 Zrotation Yrotation Xrotation
						End Site
						{
							OFFSET 0.000000 0.000000 0.000000
						}
					}
				}
				JOINT LeftShoulder
				{
					OFFSET 0.078845 0.121749 -0.034090
					CHANNELS 3 Zrotation Yrotation Xrotation
					JOINT LeftArm
					{
						OFFSET 0.090977 0.030469 -0.008868
						CHANNELS 3 Zrotation Yrotation Xrotation
						JOINT LeftForeArm
						{
							OFFSET 0.259612 -0.012772 -0.027456
							CHANNELS 3 Zrotation Yrotation Xrotation
							JOINT LeftHand
							{
								OFFSET 0.249234 0.008986 -0.001171
								CHANNELS 3 Zrotation Yrotation Xrotation
								End Site
								{
									OFFSET 0.000000 0.000000 0.000000
								}
							}
						}
					}
				}
				JOINT RightShoulder
				{
					OFFSET -0.081759 0.118833 -0.038615
					CHANNELS 3 Zrotation Yrotation Xrotation
					JOINT RightArm
					{
						OFFSET -0.096012 0.032551 -0.009143
						CHANNELS 3 Zrotation Yrotation Xrotation
						JOINT RightForeArm
						{
							OFFSET -0.253742 -0.013329 -0.021401
							CHANNELS 3 Zrotation Yrotation Xrotation
							JOINT RightHand
							{
								OFFSET -0.255298 0.007772 -0.005559
								CHANNELS 3 Zrotation Yrotation Xrotation
								End Site
								{
									OFFSET 0.000000 0.000000 0.000000
								}
							}
						}
					}
				}
			}
		}
	}
}
MOTION
Frames: 18
Frame Time: 0.050000
0.000000 0.974970 0.000000 -0.699558 -2.321438 -0.827901 8.762080 0.013978 2.765195 -3.849740 0.464430 -11.073981 13.262966 22.886251 44.791162 0.000000 0.000000 0.000000 -8.383649 0.362715 -5.141420 2.193748 -0.236986 -0.710208 -11.863777 -23.994948 43.030412 0.000000 0.000000 0.000000 5.404331 -0.682754 7.584824 -4.104592 1.514235 -31.785270 -2.461543 4.755026 34.852913 10.359668 -0.950306 -48.548323 0.000000 0.000000 0.000000 -9.553432 2.211593 -1.633439 -56.039388 -5.226261 -7.755222 0.005566 -1.925619 0.081640 0.000000 0.000000 0.000000 15.214449 -6.112277 -3.139485 57.983284 12.533350 -2.986244 3.385788 10.039937 0.652914 0.000000 0.000000 0.000000 
-0.014051 0.977546 0.001531 -0.535997 -3.533296 -0.616557 9.742018 0.016001 2.287467 -3.887433 0.479645 -9.950044 12.060338 21.828548 41.807798 0.000000 0.000000 0.000000 -8.291022 0.373905 -4.377299 3.026374 -0.311360 -1.101437 -12.287733 -24.660665 41.388611 0.000000 0.000000 0.000000 5.890984 -0.735806 7.846147 -3.558634 1.427328 -32.194988 -3.014038 7.118780 34.355892 11.676434 -1.107316 -49.074218 0.000000 0.000000 0.000000 -8.399349 3.410651 -2.237019 -56.109010 -5.271716 -7.742275 2.886071 -1.942910 0.066414 0.000000 0.000000 0.000000 15.757940 -7.666822 -3.752026 56.933079 12.783954 -2.755158 3.010583 12.676477 0.874393 0.000000 0.000000 0.000000 
-0.028399 0.981110 0.001539 0.357633 -3.989075 -0.319072 9.697762 0.018246 1.720458 -4.325344 0.503278 -10.375035 15.549079 24.186741 51.225632 0.000000 0.000000 0.000000 -8.403627 0.379722 -3.959120 2.835962 -0.328263 -3.901181 -11.941754 -24.196023 44.144084 0.000000 0.000000 0.000000 5.452871 -0.623912 6.855739 -4.146467 1.528637 -32.459256 -2.921289 7.210800 34.431576 10.176955 -0.458561 -50.612421 0.000000 0.000000 0.000000 -7.411184 2.618063 -1.722047 -54.815866 -3.898565 -8.311321 8.273908 2.515504 0.198998 0.000000 0.000000 0.000000 15.497417 -7.925360 -3.888456 52.775635 13.841740 -2.534359 5.517181 10.126382 0.802845 0.000000 0.000000 0.000000 
-0.042804 0.984494 0.000751 0.718855 -4.384811 -0.906475 10.552360 0.037901 1.480428 -4.370434 0.510836 -9.710905 13.891368 22.951508 50.441492 0.000000 0.000000 0.000000 -7.829024 0.340477 -2.804794 2.748396 -0.335485 -5.213250 -13.824072 -25.755518 46.194018 0.000000 0.000000 0.000000 5.891003 -0.745555 8.112051 -4.511184 1.594500 -32.245302 -4.309051 5.425688 33.889736 11.038309 -1.041013 -50.133719 0.000000 0.000000 0.000000 -6.316773 6.278183 -2.998976 -51.428717 -2.502037 -8.244740 11.652870 4.278555 0.467296 0.000000 0.000000 0.000000 13.636026 -6.414675 -3.299183 50.955207 15.313114 -1.872765 6.246842 10.309411 0.847425 0.000000 0.000000 0.000000 
-0.057000 0.987961 -0.000322 1.455436 -5.337152 -1.624066 9.985244 0.094706 1.974460 -2.673429 0.475685 -10.474906 14.349452 22.968109 57.394442 0.000000 0.000000 0.000000 -7.791180 0.311360 -1.647909 3.058364 -0.361815 -8.882865 -16.422581 -27.078065 53.875921 0.000000 0.000000 0.000000 5.154116 -0.742840 9.050852 -4.603542 1.632991 -34.529663 -3.557138 6.349263 35.896361 12.066174 -0.901081 -54.153369 0.000000 0.000000 0.000000 -2.593365 5.144236 -2.122546 -48.668153 -3.261834 -7.794602 16.494105 12.633417 1.705159 0.000000 0.000000 0.000000 12.780603 -7.001350 -3.424171 46.904244 18.096392 -1.176613 7.468763 8.177934 0.681175 0.000000 0.000000 0.000000 
-0.069969 0.988241 -0.001005 0.943297 -6.470307 -0.953280 10.160553 0.108810 2.014623 -0.649552 0.463484 -11.511051 12.641475 21.733640 60.646960 0.000000 0.000000 0.000000 -6.460185 0.310361 -1.708441 2.709447 -0.348484 -11.093521 -19.238101 -28.614093 57.709112 0.000000 0.000000 0.000000 5.198529 -0.785109 9.516035 -3.260765 1.463028 -35.448701 -3.841520 6.217225 35.787937 11.883152 -0.934241 -53.821375 0.000000 0.000000 0.000000 0.367522 6.110466 -2.213024 -44.961392 -1.381858 -7.732713 20.640021 16.816119 2.921593 0.000000 0.000000 0.000000 10.101689 -6.322445 -3.001280 42.670093 19.396837 -0.790301 9.789716 8.507572 0.824668 0.000000 0.000000 0.000000 
-0.081233 0.986698 -0.000294 0.990841 -7.668666 -0.814246 10.071663 0.144945 2.321246 0.505911 0.468783 -11.904818 9.170900 19.484583 61.426330 0.000000 0.000000 0.000000 -5.602206 0.292090 -1.431595 2.643611 -0.325847 -11.981051 -18.712272 -28.630459 55.489352 0.000000 0.000000 0.000000 4.777434 -0.770121 9.929163 -2.740762 1.404667 -35.233852 -3.923556 6.806060 34.944437 12.912664 -1.325013 -53.263696 0.000000 0.000000 0.000000 2.836627 6.708043 -2.209831 -40.810012 0.100721 -7.375184 28.375678 17.230074 4.320630 0.000000 0.000000 0.000000 9.118495 -6.585158 -3.071795 38.521614 19.423280 -0.863799 11.256280 11.380097 1.306499 0.000000 0.000000 0.000000 
-0.090829 0.985998 0.001687 1.073032 -8.268967 -0.627427 9.953422 0.161958 2.666036 1.132199 0.481597 -12.234301 7.944017 18.695638 61.780758 0.000000 0.000000 0.000000 -4.807019 0.244058 -0.832756 1.903400 -0.329312 -12.370267 -17.211129 -27.839563 53.552005 0.000000 0.000000 0.000000 4.396365 -0.722776 9.744589 -2.373562 1.342635 -34.632840 -4.501970 6.705297 34.373049 14.100224 -1.880805 -52.533635 0.000000 0.000000 0.000000 5.274759 7.453045 -2.272873 -36.475161 2.392081 -7.098034 34.699235 14.083184 4.545459 0.000000 0.000000 0.000000 9.272351 -6.398786 -3.058382 34.015506 19.723729 -0.905228 13.137718 14.649352 1.954507 0.000000 0.000000 0.000000 
-0.099261 0.986339 0.004519 1.185497 -9.225074 -0.846704 9.845647 0.205985 3.179270 1.926969 0.348783 -10.388024 5.543726 16.704254 58.025184 0.000000 0.000000 0.000000 -4.358296 0.212198 -0.433443 2.056045 -0.307001 -11.536420 -15.591159 -27.261258 48.938684 0.000000 0.000000 0.000000 4.330121 -0.713905 9.891351 -2.469521 1.312210 -33.080929 -4.534144 7.176788 33.074142 16.364406 -3.125438 -49.882985 0.000000 0.000000 0.000000 7.685530 9.341555 -2.628100 -32.978216 5.155189 -6.894221 36.225881 5.968184 2.294842 0.000000 0.000000 0.000000 8.878219 -7.119169 -3.377519 30.849504 19.323529 -0.969390 18.164041 19.909656 3.594259 0.000000 0.000000 0.000000 
-0.106530 0.984410 0.007376 1.495023 -9.575319 -0.754526 9.444473 0.223902 3.627952 2.674616 0.271413 -9.639292 3.824891 14.973067 54.180162 0.000000 0.000000 0.000000 -3.980414 0.203859 -0.501735 1.771445 -0.302374 -10.357924 -13.324850 -25.851832 44.951106 0.000000 0.000000 0.000000 3.683782 -0.631243 9.445638 -2.256244 1.264265 -32.620020 -4.681816 7.191393 33.553707 17.020876 -3.411533 -49.993380 0.000000 0.000000 0.000000 9.551653 11.567664 -3.146138 -28.652077 7.707205 -6.381200 37.885498 -1.919769 -0.075334 0.000000 0.000000 0.000000 8.693439 -7.837745 -3.711162 27.393031 19.765995 -0.988113 23.906248 22.370608 5.113179 0.000000 0.000000 0.000000 
-0.112222 0.980612 0.009819 1.343779 -10.084479 -1.086362 9.591303 0.271136 4.649686 2.060810 0.166452 -7.675752 4.367287 14.410778 46.492727 0.000000 0.000000 0.000000 -3.304553 0.185540 -0.648091 1.635075 -0.280949 -8.126184 -10.944293 -24.294060 36.757820 0.000000 0.000000 0.000000 3.998623 -0.655349 9.550458 -2.757359 1.277176 -30.520720 -4.496802 7.884214 32.095362 17.020152 -4.265462 -45.297379 0.000000 0.000000 0.000000 11.165801 13.334908 -3.343251 -25.965118 9.688438 -5.962940 41.035769 -12.062619 -3.694483 0.000000 0.000000 0.000000 8.440259 -8.843252 -4.114287 26.005967 18.765475 -1.079788 30.163102 27.687042 8.079504 0.000000 0.000000 0.000000 
-0.116024 0.978315 0.011303 1.499842 -10.043309 -1.009362 9.156753 0.274436 4.720561 2.120015 0.063325 -6.078068 3.760107 13.183026 40.944322 0.000000 0.000000 0.000000 -3.052026 0.233009 -1.519574 1.401921 -0.247275 -5.799144 -9.372005 -22.819604 31.456412 0.000000 0.000000 0.000000 3.813586 -0.615452 9.074194 -3.153646 1.295804 -28.581201 -4.178482 8.357669 31.541900 17.138137 -4.619256 -43.331155 0.000000 0.000000 0.000000 12.202335 14.961383 -3.535436 -23.836571 10.329770 -5.455638 43.931883 -20.807821 -7.487413 0.000000 0.000000 0.000000 7.774470 -9.905308 -4.479974 24.827455 18.310015 -1.126423 34.892446 30.651321 10.459127 0.000000 0.000000 0.000000 
-0.117746 0.977081 0.011422 1.384004 -9.701133 -0.870454 9.111527 0.266664 4.940138 1.473577 0.040767 -4.776833 4.527056 13.372075 35.255327 0.000000 0.000000 0.000000 -2.819298 0.272642 -2.204276 0.703125 -0.160460 -3.203036 -7.822570 -20.915745 26.352452 0.000000 0.000000 0.000000 4.452618 -0.664142 8.959137 -3.810025 1.409626 -27.169191 -4.046066 8.679412 30.844138 16.804619 -5.104424 -39.674369 0.000000 0.000000 0.000000 12.474935 16.312738 -3.723979 -23.820997 10.218468 -5.393242 47.244151 -29.584249 -12.012722 0.000000 0.000000 0.000000 5.772625 -11.730316 -5.003502 24.924161 17.325897 -1.202641 40.403056 36.090762 14.710347 0.000000 0.000000 0.000000 
-0.118084 0.976564 0.009929 1.593185 -9.725248 -0.236444 8.565275 0.241552 4.296936 1.363102 0.029574 -4.374077 5.162276 13.861973 33.554899 0.000000 0.000000 0.000000 -3.151185 0.411166 -3.996295 0.690549 -0.091686 -0.994252 -7.180703 -20.024335 23.985346 0.000000 0.000000 0.000000 4.842761 -0.656191 8.232894 -4.152297 1.478605 -26.883615 -3.928385 9.316680 31.559652 17.802434 -5.571112 -39.454518 0.000000 0.000000 0.000000 11.447660 17.236258 -4.133150 -24.036352 10.209845 -5.467238 48.944590 -36.146008 -15.655084 0.000000 0.000000 0.000000 3.659580 -12.530316 -5.054922 23.408124 18.078348 -1.119233 43.467021 42.152547 18.975974 0.000000 0.000000 0.000000 
-0.118404 0.976478 0.006845 1.865316 -9.398549 0.549059 7.955560 0.194153 3.430519 0.748099 0.062279 -3.885846 5.817782 14.313325 29.624493 0.000000 0.000000 0.000000 -3.949578 0.536416 -5.642316 0.716661 -0.016913 1.189108 -6.775085 -19.253491 21.057950 0.000000 0.000000 0.000000 5.667357 -0.684825 7.603312 -5.032956 1.674640 -25.779580 -4.421134 9.538240 30.655943 18.021518 -6.182616 -36.500263 0.000000 0.000000 0.000000 10.134514 17.247931 -4.280367 -26.162992 9.320771 -5.832661 46.913222 -42.102579 -17.549684 0.000000 0.000000 0.000000 0.881999 -13.804875 -5.207110 21.932979 19.307471 -0.874346 46.302942 50.526349 25.071629 0.000000 0.000000 0.000000 
-0.120467 0.975411 0.002926 2.062885 -8.765178 1.314270 7.850255 0.134666 2.572297 0.491019 0.100570 -4.215274 5.865461 14.409997 29.111890 0.000000 0.000000 0.000000 -4.557195 0.643784 -7.260394 0.820922 0.006953 2.122501 -6.467743 -18.700403 20.277469 0.000000 0.000000 0.000000 5.982094 -0.688536 7.152179 -5.486212 1.785730 -26.249824 -4.740520 9.530494 30.853284 18.691273 -6.563464 -36.127535 0.000000 0.000000 0.000000 7.394619 15.715961 -4.329762 -28.556333 8.450622 -6.315485 41.604053 -45.344610 -16.496797 0.000000 0.000000 0.000000 -1.742458 -13.625745 -4.823756 19.400573 20.973501 -0.719271 41.493720 60.714307 28.022052 0.000000 0.000000 0.000000 
-0.124558 0.975210 -0.000641 1.858391 -7.918343 2.092201 8.090709 0.068106 1.588341 -0.360159 0.146133 -3.347731 6.321045 14.833005 25.270425 0.000000 0.000000 0.000000 -5.166548 0.687245 -8.095916 1.377062 -0.011823 3.358215 -5.509452 -16.790462 16.989885 0.000000 0.000000 0.000000 6.410850 -0.682398 6.499187 -5.697070 1.842919 -25.613545 -5.474162 9.249242 30.036685 19.441160 -7.378726 -33.934060 0.000000 0.000000 0.000000 4.817121 14.012575 -4.220631 -31.346788 7.075027 -6.697452 29.190821 -46.601088 -11.203877 0.000000 0.000000 0.000000 -3.281745 -14.212164 -4.853788 15.746793 25.062218 -0.499748 19.645722 67.754374 16.776130 0.000000 0.000000 0.000000 
-0.130976 0.973725 -0.002999 1.623949 -7.175599 2.474195 8.769446 0.030964 1.206274 -0.848011 0.196487 -3.514583 5.827781 14.277156 24.670706 0.000000 0.000000 0.000000 -5.055607 0.715417 -8.583693 1.094024 0.012185 3.200200 -4.813011 -15.530877 16.492331 0.000000 0.000000 0.000000 6.947701 -0.730122 6.498598 -5.964316 1.908793 -25.859206 -6.421897 8.850973 29.282076 19.630393 -7.748301 -32.640932 0.000000 0.000000 0.000000 2.476458 11.187205 -3.652491 -34.466701 4.944989 -6.912007 16.528324 -40.560038 -4.685550 0.000000 0.000000 0.000000 -5.787397 -12.773949 -4.073975 11.817269 27.197771 -0.653807 -5.598424 68.426808 -0.208253 0.000000 0.000000 0.000000 
